<svg xmlns="http://www.w3.org/2000/svg" viewBox="0 0 200 60" fill="none">
  <path d="M22.784 47.832C18.368 47.832 14.6 46.552 11.512 43.992C8.424 41.4 6.6 37.8 6.04 33.192H14.056C14.456 35.432 15.448 37.256 17.032 38.664C18.616 40.04 20.56 40.728 22.864 40.728C25.168 40.728 26.976 40.12 28.288 38.904C29.6 37.688 30.256 36.136 30.256 34.248C30.256 32.68 29.808 31.368 28.912 30.312C28.016 29.256 26.912 28.44 25.6 27.864C24.288 27.288 22.448 26.616 20.08 25.848C16.928 24.856 14.44 23.864 12.616 22.872C10.792 21.88 9.232 20.44 7.936 18.552C6.64 16.664 5.992 14.2 5.992 11.16C5.992 8.456 6.624 6.072 7.888 4.008C9.184 1.944 11 0.376 13.336 -0.696C15.672 -1.768 18.384 -2.304 21.472 -2.304C26.112 -2.304 29.904 -0.984 32.848 1.656C35.792 4.296 37.504 7.896 37.984 12.456H29.728C29.392 10.376 28.448 8.696 26.896 7.416C25.344 6.104 23.344 5.448 20.896 5.448C18.688 5.448 16.96 6.024 15.712 7.176C14.464 8.296 13.84 9.928 13.84 12.072C13.84 13.576 14.272 14.84 15.136 15.864C16.032 16.888 17.104 17.688 18.352 18.264C19.632 18.808 21.472 19.48 23.872 20.28C27.024 21.304 29.52 22.312 31.344 23.304C33.168 24.296 34.728 25.752 36.024 27.672C37.32 29.592 37.968 32.04 37.968 35.016C37.968 37.432 37.352 39.72 36.12 41.88C34.888 44.04 33.08 45.768 30.696 47.064C28.312 47.8768 25.872 48.28 23.376 48.28C23.176 48.28 22.984 48.2773 22.784 48.272L22.784 47.832Z" fill="#3B82F6"/>
  <path d="M49.1758 47.592H41.3278V9.624H49.1758V47.592ZM40.7518 1.752C40.7518 0.184 41.3278 -0.792 42.4798 -1.176C43.6318 -1.56 44.9438 -1.752 46.3998 -1.752C47.8558 -1.752 49.1678 -1.56 50.3198 -1.176C51.4718 -0.792 52.0478 0.184 52.0478 1.752C52.0478 3.32 51.4718 4.28 50.3198 4.632C49.1678 4.984 47.8558 5.16 46.3998 5.16C44.9438 5.16 43.6318 4.984 42.4798 4.632C41.3278 4.28 40.7518 3.32 40.7518 1.752Z" fill="#3B82F6"/>
  <path d="M71.0395 47.592L60.7155 9.624H69.1315L75.7555 36.936H76.0955L82.6715 9.624H91.1835L80.8115 47.592H71.0395Z" fill="#3B82F6"/>
  <path d="M115.3 47.592C111.412 47.592 108.172 46.904 105.58 45.528C102.988 44.152 101.036 42.296 99.724 39.96C98.444 37.592 97.804 34.92 97.804 31.944V9.624H105.652V31.272C105.652 34.344 106.468 36.696 108.1 38.328C109.732 39.928 112.1 40.728 115.204 40.728C118.308 40.728 120.676 39.928 122.308 38.328C123.94 36.696 124.756 34.344 124.756 31.272V9.624H132.508V31.944C132.508 34.92 131.868 37.592 130.588 39.96C129.308 42.296 127.372 44.152 124.78 45.528C122.188 46.904 118.988 47.592 115.156 47.592H115.3Z" fill="#3B82F6"/>
  <path d="M160.255 47.832C155.839 47.832 152.071 46.552 148.983 43.992C145.895 41.4 144.071 37.8 143.511 33.192H151.527C151.927 35.432 152.919 37.256 154.503 38.664C156.087 40.04 158.031 40.728 160.335 40.728C162.639 40.728 164.447 40.12 165.759 38.904C167.071 37.688 167.727 36.136 167.727 34.248C167.727 32.68 167.279 31.368 166.383 30.312C165.487 29.256 164.383 28.44 163.071 27.864C161.759 27.288 159.919 26.616 157.551 25.848C154.399 24.856 151.911 23.864 150.087 22.872C148.263 21.88 146.703 20.44 145.407 18.552C144.111 16.664 143.463 14.2 143.463 11.16C143.463 8.456 144.095 6.072 145.359 4.008C146.655 1.944 148.471 0.376 150.807 -0.696C153.143 -1.768 155.855 -2.304 158.943 -2.304C163.583 -2.304 167.375 -0.984 170.319 1.656C173.263 4.296 174.975 7.896 175.455 12.456H167.199C166.863 10.376 165.919 8.696 164.367 7.416C162.815 6.104 160.815 5.448 158.367 5.448C156.159 5.448 154.431 6.024 153.183 7.176C151.935 8.296 151.311 9.928 151.311 12.072C151.311 13.576 151.743 14.84 152.607 15.864C153.503 16.888 154.575 17.688 155.823 18.264C157.103 18.808 158.943 19.48 161.343 20.28C164.495 21.304 166.991 22.312 168.815 23.304C170.639 24.296 172.199 25.752 173.495 27.672C174.791 29.592 175.439 32.04 175.439 35.016C175.439 37.432 174.823 39.72 173.591 41.88C172.359 44.04 170.551 45.768 168.167 47.064C165.783 47.8768 163.343 48.28 160.847 48.28C160.647 48.28 160.455 48.2773 160.255 48.272L160.255 47.832Z" fill="#3B82F6"/>
  <path d="M197.351 47.832C194.039 47.832 191.159 47.16 188.711 45.816C186.295 44.472 184.447 42.584 183.167 40.152C181.887 37.688 181.247 34.824 181.247 31.56C181.247 28.296 181.887 25.448 183.167 23.016C184.447 20.552 186.295 18.664 188.711 17.352C191.127 16.04 193.991 15.384 197.303 15.384C200.615 15.384 203.479 16.04 205.895 17.352C208.343 18.664 210.199 20.552 211.479 23.016C212.791 25.448 213.447 28.296 213.447 31.56C213.447 34.824 212.791 37.688 211.479 40.152C210.199 42.584 208.343 44.472 205.895 45.816C203.447 47.16 200.599 47.832 197.351 47.832ZM197.351 40.824C200.071 40.824 202.247 39.928 203.879 38.136C205.543 36.344 206.375 34.056 206.375 31.272C206.375 28.488 205.543 26.2 203.879 24.408C202.247 22.616 200.087 21.72 197.399 21.72C194.679 21.72 192.487 22.616 190.823 24.408C189.191 26.168 188.375 28.456 188.375 31.272C188.375 34.056 189.191 36.344 190.823 38.136C192.487 39.928 194.663 40.824 197.351 40.824Z" fill="#3B82F6"/>
</svg>
